<svg xmlns="http://www.w3.org/2000/svg" version="1.1" width="1000" height="1000">
    <rect width="1000" height="1000" rx="150" ry="150" fill="#ffffff"/>
    <g transform="matrix(6.769355940986469,0,0,6.769355940986469,50.00047651927338,73.48330238212196)">

        <svg xmlns="http://www.w3.org/2000/svg" version="1.1" width="132.952087" height="126.013916"
             viewBox="0 0 132.952 126.014" fill="none">
            <svg viewBox="0 0 132.952 126.014">

                <path id="path"
                      d="M0.871094 78.8369C1.33105 79.2944 2.06165 80.29 2.92493 81.199C3.78809 82.1082 4.78406 82.9304 6.10425 83.7114C7.42407 84.4927 9.06848 85.2327 10.699 85.8123C12.33 86.3926 13.9468 86.8127 15.5455 87.105C17.1443 87.3975 18.7245 87.5618 20.3187 87.676C21.9128 87.79 23.5204 87.8545 24.8224 87.8635C26.124 87.8726 27.12 87.8269 28.4719 87.7263C29.8239 87.6257 31.5321 87.4705 33.3591 87.2329C35.1862 86.9956 37.132 86.676 38.9865 86.301C40.8407 85.9265 42.6039 85.4976 44.3168 85.0496C46.0297 84.6021 47.6923 84.136 49.1904 83.6702C50.6887 83.2043 52.0225 82.7385 53.2648 82.3271C54.5071 81.9165 55.6583 81.5601 56.9053 81.2036C58.1521 80.8477 59.495 80.4912 60.5184 80.2673C61.5416 80.0437 62.245 79.9521 63.0077 79.9065C63.7704 79.8606 64.5924 79.8606 65.3964 79.9109C66.2007 79.9612 66.986 80.0618 67.7396 80.2764C68.4933 80.491 69.2152 80.8198 69.809 81.1306C70.4027 81.4412 70.8684 81.7334 71.3574 82.075C71.8466 82.4163 72.3583 82.8064 72.8197 83.2471C73.2809 83.6877 73.6917 84.1785 74.087 84.6592C74.4827 85.1401 74.8633 85.6108 75.2288 86.3469C75.5946 87.0833 75.9451 88.085 76.1454 88.9814C76.3461 89.8774 76.3959 90.6689 76.3256 91.5405C76.2557 92.4121 76.0652 93.3633 75.7296 94.2095C75.3943 95.0562 74.9136 95.7974 74.2775 96.5435C73.6414 97.2898 72.85 98.0408 71.9138 98.762C70.9772 99.4834 69.8955 100.174 68.443 100.911C66.991 101.647 65.1677 102.428 63.2549 103.139C61.3417 103.85 59.3385 104.491 56.7242 105.248C54.11 106.004 50.8849 106.875 47.9247 107.542C44.965 108.207 42.2706 108.668 39.897 108.993C37.5231 109.319 35.4697 109.51 33.6766 109.619C31.884 109.73 30.3514 109.76 28.764 109.75C27.1763 109.74 25.5337 109.69 23.8309 109.52C22.1279 109.349 20.3651 109.059 18.7079 108.618C17.0498 108.177 15.4976 107.586 14.1154 106.965C12.7328 106.344 11.5211 105.693 10.329 104.847C9.13696 104.001 7.96533 102.959 7.00378 102.002C6.04187 101.046 5.29089 100.174 4.55957 99.0774C3.82825 97.9807 3.11731 96.6587 2.50122 95.2012C1.88513 93.7437 1.36438 92.1511 0.978882 90.7339C0.593262 89.3164 0.342773 88.0745 0.197632 86.407C0.0524902 84.739 0.0124512 82.646 0.00219727 81.2634C-0.00756836 79.8813 0.0124512 79.2104 0.117065 78.8347C0.221436 78.459 0.410767 78.3792 0.871094 78.8369Z"
                      fill="#36747A" fill-opacity="1.000000" fill-rule="evenodd"/>
                <path id="path"
                      d="M16.0588 83.6306C16.0547 83.0171 16.0406 81.7896 16.0406 80.5964C16.0406 79.4036 16.0547 78.2456 16.1034 76.9133C16.1525 75.5806 16.2361 74.0742 16.3547 72.616C16.4734 71.158 16.6268 69.7488 16.8151 68.1931C17.0037 66.6375 17.2267 64.9353 17.5128 63.0867C17.799 61.2383 18.1477 59.2429 18.5173 57.3801C18.8871 55.5176 19.2778 53.7876 19.7313 52.0085C20.1846 50.2295 20.7008 48.4019 21.259 46.5112C21.8169 44.6208 22.4171 42.6675 23.0796 40.6443C23.7426 38.6211 24.4679 36.5283 25.2843 34.3796C26.1006 32.2312 27.0073 30.0269 27.7118 28.3525C28.4164 26.6782 28.9187 25.5342 29.5745 24.0759C30.2301 22.6182 31.0397 20.8459 31.8489 19.186C32.6581 17.5256 33.4673 15.9768 34.2833 14.3792C35.0997 12.7815 35.9229 11.1353 36.6486 9.72632C37.3739 8.31689 38.0016 7.14478 38.5807 6.14746C39.1597 5.14966 39.6899 4.32642 40.1434 3.58008C40.5967 2.8335 40.9735 2.16382 41.3083 1.59912C41.6432 1.03369 41.9362 0.573242 42.006 0.30835C42.0756 0.0432129 41.9225 -0.0263672 41.7131 0.00830078C41.5038 0.0432129 41.2388 0.182861 40.8547 0.573242C40.4712 0.964111 39.9689 1.60596 39.2435 2.53369C38.5179 3.46167 37.5692 4.67529 36.6486 5.84058C35.7274 7.00537 34.8344 8.12134 33.9485 9.23804C33.0625 10.354 32.1837 11.4702 31.3047 12.6421C30.4255 13.8142 29.5468 15.0417 28.6957 16.2278C27.8445 17.4138 27.0214 18.5579 26.0935 19.8694C25.1655 21.1807 24.1331 22.6597 23.1984 23.9785C22.2637 25.2969 21.4265 26.4548 20.4778 27.8921C19.5288 29.3291 18.4686 31.0454 17.5967 32.4475C16.7244 33.8494 16.0406 34.938 15.2942 36.1868C14.5477 37.4353 13.7385 38.8445 13.0061 40.1143C12.2736 41.3838 11.6178 42.5139 10.9829 43.6514C10.3483 44.7881 9.7345 45.9321 9.10669 47.1462C8.47852 48.3599 7.83679 49.6438 7.14624 51.074C6.45581 52.5037 5.71606 54.0806 5.13025 55.4475C4.54407 56.8149 4.11169 57.9731 3.72095 59.1033C3.33008 60.2332 2.98169 61.3357 2.65356 62.3679C2.32581 63.4006 2.01855 64.3635 1.72571 65.5212C1.43274 66.6792 1.15381 68.0327 0.958496 69.2673C0.763062 70.5022 0.651489 71.6187 0.603882 72.5669C0.556274 73.5154 0.572876 74.2954 0.795898 75.2131C1.01892 76.1304 1.44824 77.1851 1.95239 78.0435C2.4563 78.9023 3.03491 79.5647 3.73035 80.1714C4.42542 80.7781 5.2373 81.3286 6.17078 81.842C7.104 82.3552 8.15845 82.8315 9.3252 83.186C10.4916 83.5405 11.7701 83.7742 12.8107 83.928C13.8512 84.0823 14.6539 84.1567 15.1396 84.1948C15.6252 84.2327 15.7946 84.2341 15.8933 84.2356C15.9923 84.2375 16.0214 84.239 16.0388 84.241C16.0565 84.2424 16.0626 84.2437 16.0588 83.6306Z"
                      fill="#2B6166" fill-opacity="1.000000" fill-rule="evenodd"/>
                <path id="path"
                      d="M85.3096 7.91309C84.6825 8.08057 83.4542 8.21118 82.2345 8.5C81.0144 8.78906 79.8031 9.23633 78.464 9.98413C77.125 10.7322 75.6584 11.781 74.3368 12.8984C73.0155 14.0161 71.8389 15.2026 70.7821 16.437C69.7253 17.6716 68.7885 18.9548 67.8878 20.2754C66.9872 21.5955 66.1232 22.9529 65.4606 24.0735C64.798 25.1941 64.3365 26.0776 63.7432 27.2966C63.1501 28.5159 62.4252 30.0703 61.7113 31.769C60.9977 33.4675 60.2955 35.3101 59.6862 37.1016C59.0773 38.8926 58.5614 40.6323 58.0867 42.3381C57.6121 44.0432 57.1785 45.7146 56.8278 47.2439C56.4767 48.7732 56.2083 50.1602 55.9388 51.4412C55.6693 52.7217 55.3983 53.8955 55.079 55.1526C54.7596 56.4092 54.3922 57.749 54.071 58.7461C53.7498 59.7432 53.475 60.3967 53.1306 61.0793C52.7867 61.7615 52.3729 62.4719 51.9254 63.1414C51.4775 63.811 50.9956 64.4397 50.4309 64.9827C49.8662 65.5264 49.2189 65.9846 48.6519 66.3416C48.0846 66.6987 47.5978 66.9541 47.0569 67.2051C46.5157 67.4561 45.9208 67.7021 45.3082 67.8794C44.6956 68.0562 44.0647 68.1643 43.4502 68.2644C42.8356 68.3647 42.2373 68.4568 41.4171 68.4023C40.5969 68.3481 39.5546 68.1472 38.6792 67.8696C37.8035 67.5918 37.0945 67.2368 36.3767 66.738C35.6587 66.239 34.9323 65.5962 34.3694 64.8804C33.8066 64.1646 33.408 63.3765 33.0829 62.4512C32.7578 61.5264 32.5065 60.4644 32.3541 59.2922C32.2019 58.1204 32.1489 56.8376 32.243 55.2124C32.3372 53.5867 32.5786 51.6179 32.9264 49.6069C33.274 47.5955 33.7277 45.5415 34.389 42.9021C35.0505 40.262 35.9194 37.0361 36.8325 34.1433C37.7457 31.25 38.7026 28.6895 39.6154 26.4739C40.5278 24.2588 41.3964 22.3882 42.2029 20.7834C43.0094 19.1782 43.7544 17.8389 44.5616 16.4717C45.3687 15.1042 46.2383 13.71 47.2417 12.3237C48.2456 10.9377 49.3832 9.56006 50.598 8.34912C51.8127 7.13818 53.1041 6.09351 54.3363 5.21143C55.5684 4.32886 56.7405 3.60889 58.0717 3.00439C59.4027 2.40015 60.8926 1.91113 62.203 1.56104C63.5133 1.21118 64.6442 1.00024 65.9598 0.920166C67.2755 0.8396 68.776 0.890381 70.3456 1.09082C71.9149 1.29126 73.5533 1.64233 74.9725 2.02173C76.3914 2.40161 77.5906 2.80981 79.1051 3.52319C80.6195 4.23633 82.4487 5.25488 83.6488 5.94165C84.8484 6.62793 85.4183 6.98291 85.6904 7.26221C85.9623 7.5415 85.9365 7.74561 85.3096 7.91309Z"
                      fill="#91760A" fill-opacity="1.000000" fill-rule="evenodd"/>
                <path id="path"
                      d="M73.5272 18.6284C74.0591 18.9333 75.1271 19.5388 76.1586 20.1389C77.1892 20.7393 78.1832 21.3337 79.3103 22.0461C80.4374 22.7583 81.6975 23.5886 82.8982 24.4246C84.0985 25.2603 85.2393 26.1021 86.4891 27.0474C87.739 27.9924 89.0978 29.0417 90.5518 30.2188C92.0057 31.3958 93.5546 32.7007 94.9786 33.9575C96.4025 35.2136 97.701 36.4216 99.0107 37.7083C100.32 38.9946 101.64 40.3604 102.994 41.7939C104.347 43.2271 105.733 44.728 107.148 46.3184C108.563 47.9087 110.007 49.5884 111.454 51.3745C112.9 53.1609 114.349 55.0537 115.442 56.5046C116.535 57.9558 117.271 58.9653 118.201 60.2656C119.132 61.5657 120.256 63.1562 121.284 64.6909C122.312 66.2256 123.243 67.7036 124.214 69.2129C125.184 70.7217 126.193 72.2615 127.046 73.5972C127.899 74.9331 128.596 76.0652 129.167 77.0674C129.738 78.0698 130.183 78.9421 130.6 79.7095C131.017 80.4766 131.406 81.1392 131.726 81.7129C132.046 82.2864 132.297 82.7712 132.491 82.9651C132.685 83.1587 132.822 83.061 132.897 82.8625C132.972 82.6643 132.985 82.365 132.84 81.8364C132.696 81.3083 132.394 80.5518 131.957 79.458C131.52 78.3643 130.948 76.9338 130.404 75.552C129.861 74.1697 129.345 72.8367 128.826 71.5098C128.307 70.1824 127.784 68.8611 127.213 67.5122C126.642 66.1628 126.024 64.7856 125.426 63.4534C124.83 62.1213 124.255 60.8345 123.588 59.3728C122.921 57.9109 122.162 56.2747 121.493 54.8037C120.823 53.3328 120.244 52.0266 119.479 50.4836C118.714 48.9409 117.764 47.1611 116.991 45.7024C116.218 44.2434 115.621 43.105 114.917 41.8315C114.213 40.5583 113.402 39.1504 112.673 37.8787C111.945 36.6069 111.297 35.4714 110.634 34.3508C109.97 33.2302 109.291 32.1243 108.557 30.9712C107.824 29.8181 107.037 28.6177 106.149 27.3013C105.26 25.9854 104.269 24.5527 103.382 23.3589C102.495 22.1646 101.712 21.2083 100.932 20.3025C100.151 19.396 99.3741 18.5403 98.6466 17.7375C97.9194 16.9348 97.2418 16.1853 96.3879 15.3496C95.5345 14.5137 94.5054 13.5918 93.5363 12.802C92.5673 12.012 91.6587 11.354 90.863 10.8362C90.0675 10.3181 89.3845 9.93994 88.4792 9.67139C87.5745 9.40259 86.4467 9.24316 85.4512 9.24683C84.4556 9.25024 83.5919 9.41724 82.7178 9.71289C81.8439 10.0088 80.9595 10.4336 80.0464 10.9822C79.1337 11.5305 78.1918 12.2024 77.2983 13.0325C76.4052 13.8625 75.5604 14.8501 74.9039 15.6721C74.2474 16.4937 73.7792 17.1499 73.5018 17.5505C73.2247 17.9512 73.1385 18.0967 73.0872 18.1812C73.0361 18.2659 73.0199 18.29 73.0098 18.3044C72.9995 18.3188 72.9951 18.3232 73.5272 18.6284Z"
                      fill="#8D4D17" fill-opacity="1.000000" fill-rule="evenodd"/>
                <path id="path"
                      d="M105.942 118.399C106.113 117.773 106.618 116.646 106.983 115.447C107.348 114.247 107.572 112.975 107.599 111.442C107.628 109.908 107.46 108.113 107.16 106.408C106.86 104.704 106.427 103.09 105.892 101.555C105.358 100.02 104.721 98.5649 104.034 97.1218C103.346 95.6787 102.609 94.249 101.974 93.1121C101.34 91.9756 100.809 91.1321 100.055 90.0056C99.3001 88.8789 98.322 87.47 97.2139 85.998C96.1056 84.5261 94.8674 82.9917 93.6267 81.5635C92.3859 80.1353 91.1423 78.8135 89.908 77.5447C88.6732 76.2754 87.4479 75.0593 86.3031 73.9861C85.1586 72.9131 84.0955 71.9827 83.1249 71.105C82.1543 70.2275 81.2764 69.4019 80.3511 68.4932C79.4259 67.5845 78.4534 66.5923 77.7538 65.8125C77.0546 65.0332 76.6279 64.4663 76.2118 63.8257C75.7957 63.1846 75.3901 62.4695 75.0371 61.7454C74.6841 61.0212 74.3837 60.2883 74.1989 59.5273C74.0135 58.7656 73.9434 57.9758 73.9207 57.3062C73.8976 56.6362 73.9221 56.0869 73.9777 55.4929C74.0332 54.8997 74.1201 54.2617 74.2759 53.6431C74.4313 53.0244 74.6558 52.4248 74.8787 51.8435C75.1017 51.2622 75.3232 50.6992 75.7832 50.0176C76.2432 49.3367 76.9412 48.5371 77.6223 47.9207C78.303 47.304 78.9667 46.8701 79.7593 46.5012C80.5518 46.1318 81.4733 45.8279 82.375 45.7021C83.2769 45.5767 84.1586 45.6289 85.1216 45.814C86.0842 45.9988 87.1282 46.3164 88.2174 46.7751C89.307 47.2341 90.4417 47.8337 91.7986 48.7336C93.1558 49.6335 94.7349 50.8337 96.2974 52.1467C97.8597 53.46 99.4059 54.886 101.354 56.7869C103.302 58.687 105.651 61.0625 107.691 63.3083C109.731 65.5537 111.461 67.6699 112.915 69.574C114.37 71.4783 115.548 73.1702 116.529 74.6753C117.509 76.1804 118.292 77.4985 119.066 78.8843C119.841 80.27 120.608 81.7236 121.3 83.2883C121.992 84.8535 122.609 86.53 123.044 88.1895C123.479 89.8489 123.731 91.4907 123.872 92.9995C124.014 94.5083 124.046 95.8838 123.898 97.3379C123.75 98.792 123.422 100.325 123.065 101.634C122.708 102.942 122.32 104.025 121.727 105.203C121.134 106.38 120.335 107.651 119.371 108.906C118.408 110.161 117.279 111.399 116.237 112.434C115.194 113.469 114.238 114.3 112.859 115.249C111.48 116.198 109.679 117.266 108.481 117.957C107.284 118.647 106.691 118.961 106.312 119.056C105.934 119.15 105.771 119.025 105.942 118.399Z"
                      fill="#5D5A76" fill-opacity="1.000000" fill-rule="evenodd"/>
                <path id="path"
                      d="M102.617 101.869C102.086 102.175 101.025 102.793 99.987 103.382C98.9495 103.97 97.9354 104.53 96.7524 105.144C95.5695 105.759 94.2175 106.43 92.8906 107.046C91.5643 107.663 90.2627 108.224 88.8167 108.828C87.3706 109.432 85.7798 110.078 84.031 110.741C82.2819 111.405 80.3743 112.086 78.5718 112.683C76.7693 113.281 75.0715 113.795 73.3005 114.278C71.5294 114.761 69.6854 115.214 67.7654 115.662C65.8458 116.109 63.8506 116.551 61.7639 116.973C59.6772 117.395 57.499 117.796 55.2275 118.147C52.9557 118.497 50.5908 118.796 48.7872 119.009C46.9829 119.223 45.7401 119.351 44.1486 119.5C42.5566 119.649 40.6162 119.819 38.7726 119.935C36.9293 120.05 35.1827 120.11 33.3909 120.188C31.5983 120.267 29.7604 120.363 28.1766 120.428C26.5927 120.492 25.2638 120.524 24.1104 120.513C22.9572 120.501 21.9794 120.446 21.1063 120.421C20.2333 120.395 19.4648 120.397 18.8083 120.385C18.1515 120.372 17.6064 120.345 17.3416 120.415C17.0767 120.485 17.0913 120.653 17.2251 120.817C17.3589 120.982 17.611 121.144 18.1401 121.285C18.6693 121.426 19.4751 121.546 20.6404 121.719C21.8052 121.893 23.3291 122.119 24.7971 122.345C26.2646 122.571 27.6759 122.797 29.0842 123.017C30.4921 123.237 31.8965 123.45 33.3497 123.636C34.803 123.823 36.3046 123.982 37.756 124.137C39.2073 124.292 40.6088 124.443 42.2075 124.603C43.8058 124.763 45.6014 124.931 47.2097 125.094C48.8179 125.256 50.2382 125.413 51.9564 125.529C53.6742 125.645 55.6902 125.72 57.3403 125.787C58.9901 125.854 60.274 125.911 61.7284 125.944C63.1827 125.978 64.8079 125.986 66.2736 125.997C67.7393 126.007 69.0459 126.02 70.3483 126.011C71.6504 126.002 72.9486 125.972 74.3141 125.919C75.6797 125.866 77.1129 125.791 78.6973 125.686C80.282 125.581 82.0183 125.446 83.4965 125.281C84.9751 125.116 86.1958 124.921 87.3717 124.703C88.5471 124.485 89.6779 124.244 90.7377 124.02C91.7975 123.796 92.7866 123.588 93.9382 123.271C95.0902 122.955 96.405 122.53 97.5752 122.09C98.7457 121.651 99.7719 121.197 100.62 120.771C101.468 120.344 102.139 119.944 102.826 119.298C103.515 118.651 104.22 117.757 104.718 116.896C105.216 116.033 105.507 115.203 105.692 114.299C105.876 113.395 105.954 112.417 105.94 111.352C105.926 110.287 105.82 109.135 105.553 107.945C105.286 106.756 104.858 105.529 104.478 104.547C104.099 103.566 103.768 102.831 103.561 102.39C103.354 101.948 103.273 101.801 103.225 101.714C103.178 101.627 103.165 101.601 103.158 101.585C103.15 101.569 103.149 101.563 102.617 101.869Z"
                      fill="#49466B" fill-opacity="1.000000" fill-rule="evenodd"/>
            </svg>
        </svg>
    </g>
</svg>